<!-- Generator: Adobe Illustrator 21.1.0, SVG Export Plug-In  -->
<svg version="1.1"
	 xmlns="http://www.w3.org/2000/svg" xmlns:xlink="http://www.w3.org/1999/xlink" xmlns:a="http://ns.adobe.com/AdobeSVGViewerExtensions/3.0/"
	 x="0px" y="0px" width="58px" height="58.4px" viewBox="0 0 58 58.4" style="enable-background:new 0 0 58 58.4;"
	 xml:space="preserve">
<defs>
</defs>
<path d="M57.7,26.6L49,18.6V5.4H39v3.9L29,0L0.3,26.6c-0.4,0.4-0.4,1-0.1,1.4c0.4,0.4,1,0.4,1.4,0.1L5,25v33.3h16h16h16V25l3.3,3.1
	c0.2,0.2,0.4,0.3,0.7,0.3c0.3,0,0.5-0.1,0.7-0.3C58.1,27.6,58.1,27,57.7,26.6z M41,7.4h6v9.3l-6-5.6V7.4z M23,56.4V35.3
	c0-0.5,0.4-0.9,0.9-0.9h10.1c0.5,0,0.9,0.4,0.9,0.9v21.1C35,56.4,23,56.4,23,56.4z M51,56.4H37V35.3c0-1.6-1.3-2.9-2.9-2.9H23.9
	c-1.6,0-2.9,1.3-2.9,2.9v21.1H7V23.2L29,2.7L43.3,16l5.7,5.3l0,0l2,1.9V56.4z"/>
</svg>
