<!-- Generator: Adobe Illustrator 21.1.0, SVG Export Plug-In  -->
<svg version="1.1"
	 xmlns="http://www.w3.org/2000/svg" xmlns:xlink="http://www.w3.org/1999/xlink" xmlns:a="http://ns.adobe.com/AdobeSVGViewerExtensions/3.0/"
	 x="0px" y="0px" width="512px" height="512px" viewBox="0 0 512 512" style="enable-background:new 0 0 512 512;"
	 xml:space="preserve">
<defs>
</defs>
<path d="M452,31c0-8.3-6.7-15-15-15h-60c-8.3,0-15,6.7-15,15v13.9l90,75.5V31z"/>
<path d="M7.3,231.1L50.9,257L246.8,89.1c5.6-4.8,13.9-4.8,19.5,0L462.1,257l42.5-25.9c8.9-5.3,9.9-17.8,2-24.4L266.2,3.5
	c-5.6-4.7-13.7-4.7-19.3,0L5.4,206.7C-2.5,213.4-1.6,225.8,7.3,231.1z"/>
<path d="M302,286c0-24.8-20.7-45-45.5-45c-24.8,0-45.5,20.2-45.5,45v15h91V286z"/>
<path d="M497,482h-45.1V287.4L256.5,120.3L61,287.4V482H15c-8.3,0-15,6.7-15,15c0,8.3,6.7,15,15,15h482c8.3,0,15-6.7,15-15
	C512,488.7,505.3,482,497,482z M362,436c0,8.3-6.7,15-15,15H166.5c-8.3,0-15.5-6.7-15.5-15V316c0-8.3,7.2-15,15.5-15H181v-15
	c0-41.4,34.2-75,75.5-75s75.5,33.6,75.5,75v15h15.5c8.3,0,14.5,6.7,14.5,15V436z"/>
<path d="M271,376c0,8.3-6.7,15-15,15s-15-6.7-15-15v-45h-60v90h151v-90h-61V376z"/>
</svg>
