<!-- Generator: Adobe Illustrator 21.1.0, SVG Export Plug-In  -->
<svg version="1.1"
	 xmlns="http://www.w3.org/2000/svg" xmlns:xlink="http://www.w3.org/1999/xlink" xmlns:a="http://ns.adobe.com/AdobeSVGViewerExtensions/3.0/"
	 x="0px" y="0px" width="291.2px" height="374px" viewBox="0 0 291.2 374" style="enable-background:new 0 0 291.2 374;"
	 xml:space="preserve">
<defs>
</defs>
<path d="M287.5,75.7L147,0.8c-2.1-1.1-4.6-1.1-6.7,0L3.6,75.8C1.4,77,0,79.3,0,81.9v97.8c0.1,80.4,47.7,153.2,121.4,185.4l19,8.3
	c1.8,0.8,3.8,0.8,5.6,0l21.4-9.2c75.1-31.5,123.9-105,123.9-186.4V81.9C291.2,79.3,289.8,76.9,287.5,75.7z M277.2,177.8
	c0,75.8-45.5,144.2-115.4,173.5l0,0l-18.6,8l-16.2-7.1c-68.6-30-113-97.7-113-172.6V86l129.7-71.1l133.5,71.1V177.8z"/>
<path d="M92.1,175.2c-2.5-2.9-6.9-3.3-9.9-0.8c-2.9,2.5-3.3,6.9-0.8,9.9l37,43.3c2.5,2.9,6.8,3.3,9.7,0.9l86.1-70
	c3-2.4,3.5-6.8,1-9.8c-2.4-3-6.8-3.5-9.8-1l-80.8,65.7L92.1,175.2z"/>
</svg>
